<?xml version="1.0" encoding="UTF-8" standalone="no"?>
<svg
   xmlns:dc="http://purl.org/dc/elements/1.1/"
   xmlns:cc="http://creativecommons.org/ns#"
   xmlns:rdf="http://www.w3.org/1999/02/22-rdf-syntax-ns#"
   xmlns:svg="http://www.w3.org/2000/svg"
   xmlns="http://www.w3.org/2000/svg"
   xmlns:sodipodi="http://sodipodi.sourceforge.net/DTD/sodipodi-0.dtd"
   xmlns:inkscape="http://www.inkscape.org/namespaces/inkscape"
   viewBox="0 0 64 64"
   id="svg3386"
   version="1.1"
   inkscape:version="0.91 r13725"
   sodipodi:docname="ext_icon.svg">
  <metadata
     id="metadata3396">
    <rdf:RDF>
      <cc:Work
         rdf:about="">
        <dc:format>image/svg+xml</dc:format>
        <dc:type
           rdf:resource="http://purl.org/dc/dcmitype/StillImage" />
      </cc:Work>
    </rdf:RDF>
  </metadata>
  <defs
     id="defs3394" />
  <sodipodi:namedview
     pagecolor="#ffffff"
     bordercolor="#666666"
     borderopacity="1"
     objecttolerance="10"
     gridtolerance="10"
     guidetolerance="10"
     inkscape:pageopacity="0"
     inkscape:pageshadow="2"
     inkscape:window-width="1441"
     inkscape:window-height="960"
     id="namedview3392"
     showgrid="false"
     inkscape:zoom="8.9943982"
     inkscape:cx="22.502484"
     inkscape:cy="21.989555"
     inkscape:window-x="0"
     inkscape:window-y="0"
     inkscape:window-maximized="0"
     inkscape:current-layer="svg3386" />
  <path
     d="M0 0h64v64H0z"
     id="path3388"
     fill="#4C7E3A"
     style="fill:#4c7eb9;fill-opacity:1" />
  <style
     id="style3727"
     type="text/css">
	.st0{fill:#333333;}
</style>
  <g
     id="XMLID_1_"
     transform="matrix(0.60693044,0,0,0.60693044,3.395385,2.5432897)"
     style="fill:#ffffff">
    <path
       d="m 48,34.1 -18.6,0 0,-4.6 18.6,0 0,4.6 z M 29.4,48 l 32.5,0 0,-4.6 -32.5,0 0,4.6 z m 0,9.3 32.5,0 0,-4.6 -32.5,0 0,4.6 z m 0,9.3 32.5,0 0,-4.6 -32.5,0 0,4.6 z m 46.5,-34.8 0,44.1 c 0,2.6 -2.1,4.6 -4.6,4.6 l -46.5,0 c -2.6,0 -4.6,-2.1 -4.6,-4.6 l 0,-55.8 c 0,-2.6 2.1,-4.6 4.6,-4.6 l 34.8,0 16.3,16.3 z m -4.7,2.3 -13.9,-14 -32.5,0 0,55.7 46.4,0 0,-41.7 z"
       class="st0"
       id="XMLID_9_"
       inkscape:connector-curvature="0"
       style="fill:#ffffff" />
  </g>
</svg>
